<svg id="Layer_1" data-name="Layer 1" xmlns="http://www.w3.org/2000/svg" viewBox="0 0 1470.4 629.4"><defs><style>.cls-1{fill:#fefefe;}.cls-2{fill:#abe1ef;}.cls-3{fill:#022e6a;}.cls-4{fill:#c6ebf4;}.cls-5{fill:#191d23;}.cls-6{fill:#5ec8fd;}.cls-7{fill:#363c48;}.cls-8{fill:#343e4b;}.cls-9{fill:#719aef;}.cls-10{fill:#ecf7fb;}.cls-11{fill:#f5fbfd;}.cls-12{fill:#657b29;}.cls-13{fill:#55698a;}.cls-14{fill:#f1f9fd;}.cls-15{fill:#aad2ed;}.cls-16{fill:#fafcfc;}.cls-17{fill:#3c4552;}</style></defs><polygon class="cls-1" points="84.98 421.56 85.05 465.86 115.36 469.03 146.69 464.29 149.54 454.79 139.1 446.25 84.98 421.56"/><path class="cls-2" d="M1433.26,115.8q-.59,71.82-1.23,143.65c-.22,23.38-.57,46.76-.88,70.14q-.21,16.56-.49,33.13l-.45,3.69a2.23,2.23,0,0,0-.81.07h-11.48c-1.59,26.73-3.16,53.14-4.74,79.55-9.45,4.2-12.22,12.5-13,21.79-.73,8.95,1.59,17.44,4.85,25.7.63,1.6,1.19,3.23,1.78,4.84-11.29,8.68-25,10.94-38.28,14.24a623.67,623.67,0,0,1-106.44,16.8c-1.72.12-3.45,0-5.17-.08,7.71-30.74,5.74-60.5-9.82-88.55C1239.47,427,1228.89,416,1213,411.93c-15.46-4-28.55.86-39.88,11.5-10.4,8.49-16.48,19.87-20.95,32.14-8.17,22.41-9.19,45.35-4.17,68.6.36,1.68.71,3.36,1.22,5.75h-23.94q-38.37,0-76.76-.08-50.22,0-100.45.13c-1.58,0-3.16.13-4.73.19q-39.25,0-78.51,0a5.38,5.38,0,0,0-1.36.36l-38.11-.07-86.68.1q-43.36,0-86.72.09c-1.72,0-3.45-.18-5.18-.27a134.75,134.75,0,0,0,4-41.36c-1.53-22.06-7.51-42.6-21.94-59.95-8.74-10.5-19.72-17.61-33.55-18.44-12.34-.73-23.21,3.76-32.07,12.61-8.2,6.15-13.35,14.64-17.57,23.66-11.94,25.58-13.39,52.22-7.36,79.51.26,1.21.51,2.43,1,4.56H515.41q-33.86,0-67.73-.06-54.94,0-109.9.15c-1.74,0-3.47.15-5.2.23-20.77-.08-41.53-.21-62.3-.24-5.49,0-11,.27-16.47.42l-38.21.09c-1.87-.16-3.74-.47-5.61-.47q-48,0-96.05,0c-10.68,0-18.79-4.43-24.32-13.56a24.46,24.46,0,0,1,4.85-1c18.19-.07,36.38-.13,54.57,0,3.41,0,5.19-1.07,6.26-4.3a53.86,53.86,0,0,1,4.42-9.93,6,6,0,0,1,4.26-2.7q44.37-.24,88.73,0a8.23,8.23,0,0,1,4.88,2.22,86.63,86.63,0,0,1,9.4,9.37c3.42,4.11,7.33,5.48,12.73,5.44,33.37-.27,66.75-.14,100.12-.13h5.79c.13-1.91.31-3.56.34-5.22q.51-35.07,1-70.15c.3-19.58.57-39.17,1-58.75q.82-37.87,1.91-75.75c.51-17.18.92-34.38,2-51.53,2-31.76,4.7-63.44,13.67-94.2.07-.24-.16-.56-.47-1.53l-14.46,7.84-7.69,4.18c-6,3-12.23,5.83-18,9.23-1.67,1-2.72,3.6-3.27,5.68s0,4.39-.18,6.58c-.27,2.86.43,4.56,3.52,5.52,4.52,1.4,6.49,5.17,7.17,9.67q-.13,19.13-.27,38.26c-.06,10-3.72,13.77-13.56,13.78-11.59,0-15-3.32-15-14.75,0-6.15-.09-12.29-.14-18.43,0-5.83.15-11.66.12-17.5,0-5.5,2.22-9.57,7.51-11.29,2.58-.83,3.24-2.26,2.85-4.51-2.29-13,4.16-20.31,15.67-24.84,5.51-2.18,10.54-5.58,15.78-8.42l7.63-3.74c10.89-4,18.48-10.33,22.47-22.36A111.3,111.3,0,0,1,441.4,91.92c13.7-14.09,29.45-23.5,49.79-23.48q72.55.09,145.11.06a12.29,12.29,0,0,0,8.58-2.89c8.5-7,17.2-13.84,26.12-20.33,4-2.92,8.71-4.86,13.1-7.25,4.58-.08,9.17-.24,13.75-.24h566.66c3.63,0,7.27,0,10.91,0a24.22,24.22,0,0,1,15.35,5.38c10,7.76,20,15.51,30.14,23a11.53,11.53,0,0,0,6.39,2.13c17.24.17,34.49.09,51.73.1,27.79,0,47.57,15.68,53.83,42.66C1433,112.67,1433.27,114.24,1433.26,115.8ZM1137,361.59h247.32c12.46,0,18.46-5.86,18.46-18.2q0-83.55,0-167.1c0-32.88-25.54-58.45-58.43-58.45q-434.35-.06-868.7,0c-32.28,0-57.54,25.86-57.55,58.74q0,144.06.08,288.14c0,13,0,25.95,0,38.92,0,8.18,4.47,12.71,12.58,12.72q41.77.09,83.55,0c8.53,0,13-4.66,13-13.37q0-67.41,0-134.82v-6.13h493.59v5.63q0,67.65,0,135.29c0,9.46,4.09,13.41,13.68,13.42h81.65c8.87,0,12.7-3.51,13.47-12.29.19-2.2.3-4.42.3-6.63q0-64.79,0-129.58v-6.3Zm-128,28.53H540.65v6.22h468.26ZM540.7,379.52h467.94v-6.06H540.7Zm604.12,13.72c0,.93.14,1.85.25,3.06h257.44v-6H1145C1144.94,391.38,1144.81,392.31,1144.82,393.24Zm257.82-19.7H1145.19v6h257.45ZM1314.31,69.15v-.48H949.2v.48Z"/><path class="cls-3" d="M390.58,167.18c-2.62,20-5.75,40-7.7,60.15-1.64,17-2.24,34.09-2.72,51.15-.79,27.83-1.13,55.66-1.63,83.5-.21,11.95-8.35,20.48-20.26,20.49q-126,.09-252,0c-10.38,0-16.64-5.72-20.12-15.06,0-4.41-.12-8.85.11-13.25.68-12.78,1.38-25.56,2.31-38.33,3.71-51.2,7.35-102.41,20.1-152.42q1.66-5.22,3.34-10.44,5.42-12.48,10.84-25l.93-1.09.15-.3c.35-.73.71-1.47,1.06-2.21v.07a21.76,21.76,0,0,0,2.94-2c9.16-8.81,20-13.42,32.78-13.43,8.17,0,16.33,0,24.38,0,.88-5.3,1.68-10.18,2.49-15.06,6-12,15.69-17.29,29.11-17.09,22.29.34,44.59.13,66.88.09,11.74,0,20.51,5.13,25.59,15.57,4.95,10.16,3.37,20-3.66,28.83-5.37,6.12-12.13,9.56-20.28,9.6q-36.77.17-73.54,0c-8-.05-14.31-3.85-19.67-9.73a10.41,10.41,0,0,0-6.63-3.32c-9.77-.19-19.64-.51-29.33.53-17.71,1.89-28.65,13.2-33.71,29.22-5.53,17.48-9.64,35.47-13.36,53.46-3.56,17.2-6.55,34.6-8.38,52.06-1.05,10-2.1,20.46,1.79,30.45,2.89,7.46,10,8.93,16,5.72,8.12-4.38,16.43-9,23.14-15.23A143.14,143.14,0,0,1,213,237.8c12.91-2.48,26.19-3.32,39.35-4.14,17.46-1.07,35-1,52.44-2.17,11.41-.78,22.72-3,34.08-4.45,1.41-.18,2.84-.1,4.27-.14.05,6.15.12,12.29.14,18.42,0,11.43,3.4,14.77,15,14.76,9.84,0,13.5-3.76,13.56-13.78q.1-19.12.28-38.26c2.23-4.72,5.15-9.24,6.52-14.2,2-7.33,2.9-15,4.28-22.47Z"/><path class="cls-4" d="M405.05,159.34c.31,1,.54,1.29.47,1.53-9,30.76-11.7,62.44-13.67,94.2-1.06,17.15-1.47,34.35-2,51.53q-1.11,37.88-1.91,75.75c-.43,19.58-.7,39.17-1,58.75q-.52,35.07-1,70.15c0,1.66-.21,3.31-.34,5.22h-5.79c-33.37,0-66.75-.14-100.12.13-5.4,0-9.31-1.33-12.73-5.44a86.63,86.63,0,0,0-9.4-9.37,8.23,8.23,0,0,0-4.88-2.22q-44.36-.19-88.73,0a6,6,0,0,0-4.26,2.7,53.86,53.86,0,0,0-4.42,9.93c-1.07,3.23-2.85,4.33-6.26,4.3-18.19-.15-36.38-.09-54.57,0a24.46,24.46,0,0,0-4.85,1c-1.18-3.36-3.22-6.68-3.39-10.09-.63-12.51-.65-25.05-.9-37.58,13.39.35,26.81,1.31,40.17.79,7-.27,14.27-2.36,20.87-5,7.06-2.82,7.66-11.39,1.26-15.42a158,158,0,0,0-19.74-10c-14.23-6.36-28.57-12.46-42.87-18.66l1.08-54.18c3.48,9.32,9.75,15,20.12,15q126,.06,252.05,0c11.91,0,20.05-8.54,20.26-20.49.49-27.83.84-55.67,1.63-83.5.48-17.06,1.08-34.17,2.72-51.15,1.95-20.11,5.08-40.1,7.71-60.15ZM231.84,470.85c-19.92,0-39.84.07-59.76-.07-3.4,0-4.94.75-4.65,4.46s-.15,7.6.19,11.36c.11,1.19,1.72,3.2,2.65,3.2,26.69.18,53.39.14,80.5.14V470.85ZM112.6,422.06c1.81.08,3.49.22,5.16.22H298.52c5.82,0,5.82,0,4.93-6.46H112.6Zm190.64-23H112.74v6h190.5Zm57.9,66.42c10.88-2.17,17.12-8.35,18.76-19,1.13-7.45,1.61-15,2.2-22.52a7,7,0,0,0-1.12-4c-3.91-6.3-13.26-10-20-7.24-21.29,8.7-42.49,17.63-63.66,26.63-6.66,2.83-13.14,6.1-19.65,9.29a9.64,9.64,0,0,0-5.8,9.49,8.11,8.11,0,0,0,6.18,8.06,152.05,152.05,0,0,0,20.12,4.55c4,.64,8.2.12,12.31.12C327.63,471.22,344.41,468.84,361.14,465.51Z"/><path class="cls-4" d="M392.69,156.6c10.89-4,18.48-10.33,22.47-22.36A111.3,111.3,0,0,1,441.4,91.92c13.7-14.09,29.45-23.5,49.79-23.48q72.55.09,145.11.06a12.29,12.29,0,0,0,8.58-2.89c8.5-7,17.2-13.84,26.12-20.33,4-2.92,8.71-4.86,13.1-7.25C679,38,674,37.84,668.94,37.84c-52.18,0-104.36.29-156.54-.23-12-.12-21.8,2.87-30.75,10.65-7.49,6.52-15.53,12.44-23.54,18.34a11.57,11.57,0,0,1-6.54,1.75q-72.57.15-145.15.09c-2,0-4.07.3-6.1.46,2,1.21,3.93,2.41,5.88,3.63,12.49,7.79,16.47,20.47,11.43,36.39,19.72,0,39.44,0,59.16.15,9,.06,15.5,4.77,17.7,13.48A46.38,46.38,0,0,1,395.62,137C395.16,143.56,393.71,150.07,392.69,156.6Z"/><path class="cls-2" d="M108.63,163.4,112,153a24.77,24.77,0,0,0-3.49,1.2c-11.65,6-23.23,12.2-34.95,18.07-6.58,3.3-9.67,8.31-9.22,15.61.09,1.57-.1,3.17,0,4.74.25,2.9-.17,4.82-3.63,5.9-4.5,1.41-6.57,5.35-6.6,10-.09,13.6-.2,27.21.08,40.8.13,6.73,4.59,10.58,11.36,10.76,2,.06,4.11.09,6.17,0,6.51-.28,10.92-4.23,11-10.65q.31-20.64,0-41.28c-.08-5.69-2.7-8.26-10.21-11.26,0-3.48-.43-7.17.16-10.69.36-2.16,1.79-4.95,3.58-5.93C86.91,174.37,97.81,169,108.63,163.4Z"/><path class="cls-4" d="M124.94,124.48a21.37,21.37,0,0,0,2.93-2c9.16-8.81,20-13.42,32.78-13.43H185c.88-5.29,1.68-10.17,2.49-15a25.57,25.57,0,0,1,7.35-16.29c2.48-2.51,5.32-4.66,8-7q-51.45,6.14-77.17,51.14A11.75,11.75,0,0,0,124.94,124.48Z"/><path class="cls-2" d="M202.86,70.71c-2.67,2.32-5.51,4.47-8,7A25.57,25.57,0,0,0,187.52,94c6-12,15.68-17.29,29.11-17.09,22.29.34,44.59.14,66.88.1,11.74,0,20.51,5.12,25.59,15.56,4.95,10.17,3.37,20-3.66,28.83q3.07-1.86,6.17-3.7l6-8.77c5-15.91,1.06-28.59-11.43-36.38-1.95-1.22-3.92-2.42-5.88-3.63l-1.64-.1-2.05-.15c-27.56-.05-55.11-.19-82.66-.06C210.26,68.61,206.57,70,202.86,70.71Z"/><path class="cls-5" d="M253.81,531.46l-38.21.09c6.5,15.05,16,27,32.63,31.61l36,.47a14.68,14.68,0,0,0-2.43-1.62C267.88,556,258.74,545.68,253.81,531.46Z"/><path class="cls-2" d="M85.33,469.84c13.39.35,26.81,1.31,40.17.79,7-.27,14.27-2.36,20.87-5,7.06-2.82,7.66-11.39,1.26-15.42a158,158,0,0,0-19.74-10c-14.23-6.36-28.57-12.46-42.87-18.66-.84,2.9.14,4.45,3,5.71,17,7.31,33.85,14.81,50.72,22.35,3.83,1.71,9,3.25,8.51,8.33-.49,5.32-6,6.09-10.2,6.93-15.2,3-30.52,2.1-45.82.81-1.88-.16-3.74-.35-6.28-.59C85.12,466.92,85.23,468.38,85.33,469.84Z"/><path class="cls-6" d="M123.88,126.62c.35-.73.71-1.47,1.06-2.21C124.59,125.15,124.23,125.89,123.88,126.62Z"/><path class="cls-6" d="M296.63,68.65l2.05.15Z"/><path class="cls-6" d="M122.8,128l.93-1.09Z"/><path class="cls-7" d="M1193.85,563.64c-3.68-2.19-7.58-4.1-11-6.63-13.22-9.75-20.06-23.62-23.89-39.06-6.08-24.5-3.51-48.15,8.77-70.36,6.82-12.33,17-20.84,31-24.1,19.37-1.06,31.87,9.68,40.43,25.22,13.35,24.24,14.07,50,6.26,76.17-.45,1.49-.75,3-1.11,4.55-1,1.79-2,3.55-2.9,5.37-6.81,13.42-16,24.25-31.24,28.34Zm34-102.45c-12.86-21.93-36.75-22.28-49.21-.13-12.14,21.57-12.08,44,.11,65.54,12.32,21.78,35.54,21.61,48.69.26,6.23-10.11,8.55-21.28,8.71-32.35C1236.13,482.28,1233.79,471.26,1227.89,461.19Z"/><path class="cls-7" d="M584.3,563.62c-1.84-1-3.69-1.92-5.5-2.92C565,553.06,556,541.25,551.38,526.49c-2.91-9.39-5.19-19.29-5.6-29.05-.63-15.32,1.66-30.53,8.74-44.5,7.25-14.3,17.44-25.38,33.7-29.44,20.93-1.6,35.61,13,44.15,31.65a85.84,85.84,0,0,1,7.76,40.43c-.56,10.23-3.52,20.32-5.25,30.5-.24,1.39.44,2.93.69,4.4-1.45,1.38-3.4,2.5-4.27,4.18-7,13.52-16.08,24.55-31.63,28.51Zm-13.55-33.56c12.39,17,31.92,17,44.33.08,14.69-20,14.58-53.3-.23-73.12-12.28-16.44-31.43-16.52-43.75-.09-8.1,10.8-10.93,23.28-11.28,36.64C560.15,506.64,562.78,519.16,570.75,530.06Z"/><path class="cls-5" d="M1193.85,563.64c-3.68-2.19-7.58-4.1-11-6.63-13.22-9.75-20.06-23.62-23.89-39.06-6.08-24.5-3.51-48.15,8.77-70.36,6.82-12.33,17-20.84,31-24.1l-25.63-.06c-10.4,8.49-16.48,19.87-20.95,32.14-8.17,22.41-9.19,45.35-4.17,68.6.36,1.68.71,3.36,1.22,5.75h-23.94c6.53,15.76,16.07,28.51,33.51,33.28Z"/><path class="cls-5" d="M584.3,563.62c-1.84-1-3.69-1.92-5.5-2.92C565,553.06,556,541.25,551.38,526.49c-2.91-9.39-5.19-19.29-5.6-29.05-.63-15.32,1.66-30.53,8.74-44.5,7.25-14.3,17.44-25.38,33.7-29.44l-25.05-.28c-8.2,6.15-13.35,14.64-17.57,23.66-11.94,25.58-13.39,52.22-7.36,79.51.26,1.21.51,2.43,1,4.56H515.41c6.57,15.19,16,27.44,32.85,32.19Z"/><path class="cls-8" d="M910.11,563.13c17.21-4.81,26.57-17.51,33.19-33q-39.25,0-78.51,0a5.38,5.38,0,0,0-1.36.36c2.62,4.94,4.86,10.14,8,14.77a44.51,44.51,0,0,0,18.73,15.85c1.85.85,3.73,1.65,5.6,2.47Z"/><path class="cls-8" d="M298.72,563.29c17.49-4.1,27-16.66,33.86-32-20.77-.08-41.53-.21-62.3-.24-5.49,0-11,.27-16.47.42,4.93,14.22,14.07,24.58,28,30.55a14.68,14.68,0,0,1,2.43,1.62Z"/><path class="cls-5" d="M895.71,563.6c-1.87-.82-3.75-1.62-5.6-2.47a44.51,44.51,0,0,1-18.73-15.85c-3.09-4.63-5.33-9.83-8-14.77l-38.11-.07.31.28.51,1.5c6.55,14.86,16.1,26.56,32.57,31Z"/><path class="cls-3" d="M1130,367.89q0,64.78,0,129.58c0,2.21-.11,4.43-.3,6.63-.77,8.78-4.6,12.28-13.47,12.29H1034.6c-9.59,0-13.67-4-13.68-13.42q-.06-67.65,0-135.29v-5.63H527.28v6.13q0,67.41,0,134.82c0,8.71-4.47,13.36-13,13.37q-41.77.07-83.55,0c-8.11,0-12.54-4.54-12.58-12.72-.06-13,0-25.95,0-38.92q0-144.08-.08-288.14c0-32.88,25.27-58.74,57.55-58.74q434.35-.07,868.7,0c32.89,0,58.38,25.57,58.43,58.45q.12,83.55,0,167.1c0,12.34-6,18.2-18.46,18.2H1130Zm-370-235c0,23.41.05,46.82-.09,70.23,0,3.63.84,4.9,4.73,4.89q56.7-.21,113.41,0c3.58,0,4.55-1.09,4.53-4.6-.13-23.56-.1-47.13,0-70.7,0-2.92-.28-4.64-4-4.63-38.6.12-77.19.08-115.79.09-.62,0-1.25.14-2.49.29C760.22,130.17,760,131.55,760,132.93Zm496.39,75.13c4,0,5-1.22,5-5.1q-.26-35.11,0-70.23c0-3.47-.86-4.64-4.49-4.62q-56.94.18-113.89,0c-3.37,0-4.28,1.09-4.27,4.35q.18,35.6,0,71.18c0,3.78,1.43,4.4,4.75,4.37,18.82-.12,37.65-.06,56.47-.06S1237.61,207.86,1256.43,208.06Zm-248.6,0c3.76,0,4.84-1.05,4.81-4.81q-.24-35.1,0-70.19c0-3.5-.62-5-4.63-5q-56.21.22-112.4,0c-3.54,0-4.59,1-4.57,4.55q.21,35.33,0,70.66c0,3.89,1.27,4.75,4.89,4.72,18.81-.16,37.63-.07,56.44-.07C970.84,208,989.34,207.87,1007.83,208.05Zm262.06-75.2c0,23.42.06,46.84-.07,70.25,0,3.52.68,5,4.66,5q55.79-.24,111.55,0c3.59,0,4.65-1.08,4.54-4.6-.24-7.75.24-15.52-.15-23.25-.79-15.64-7.64-28.38-19.47-38.51s-25.77-13.89-41.22-13.58c-18,.36-36.07.08-54.11.08h-5.73C1269.89,130.34,1269.9,131.6,1269.89,132.85ZM746.73,208c3.72.05,4.86-1,4.83-4.78q-.24-35.1,0-70.21c0-3.5-.63-5-4.64-5q-48.61.24-97.25,0c-3.51,0-4.61.95-4.59,4.53q.21,35.58,0,71.16c0,3.45,1.23,4.25,4.41,4.22,16.45-.12,32.9-.05,49.34-.05C714.78,208,730.76,207.86,746.73,208Zm-115.05,0c3.47,0,5-.58,5-4.62q-.28-35.34,0-70.68c0-3.45-.85-4.64-4.49-4.62q-46,.19-92,0c-3.39,0-4.27,1.12-4.26,4.36q.18,35.58,0,71.16c0,3.77,1.41,4.42,4.74,4.39,15.18-.15,30.36-.06,45.54-.06S616.5,207.88,631.68,208Zm-71.43,76.45c7.82-.78,15.62-1.73,23.44-2.46,13.94-1.29,27.88-2.47,41.82-3.69l1.42-.11c9.66-.67,9.66-.67,9.66-10.62,0-15.19-.16-30.38.09-45.57.07-4.49-1.48-5.62-5.77-5.6-30.06.15-60.12.09-90.19.06-2.66,0-4.88-.26-4.85,3.74.16,21.2.08,42.41.09,63.61a28.42,28.42,0,0,0,.34,2.83C544.64,285.91,552.45,285.24,560.25,284.48ZM764.8,216.43c-3.66,0-4.92.89-4.87,4.75.23,14.71.17,29.42,0,44.13,0,3.18.73,4.57,4.21,4.39,19.82-1,39.64-2.06,59.47-2.79,16.09-.59,32.2-.74,48.29-1.08,1.27,0,2.54,0,3.8,0,6.44-.29,6.81-.69,6.81-7.16,0-12.34-.2-24.68.11-37,.1-4.34-1.34-5.26-5.4-5.21-18.66.2-37.33.09-56,.09C802.45,216.51,783.62,216.6,764.8,216.43Zm-63.55,57c15.55-.92,31.1-1.94,46.66-2.76,2.6-.14,3.63-.86,3.61-3.57q-.13-23.25,0-46.51c0-3.15-1.35-4.09-4.31-4.09q-49.11.08-98.24,0c-2,0-3.86-.13-3.84,2.78.13,19,.2,37.93.31,56.9,0,.13.18.25.32.44Q673.46,275,701.25,273.41Zm573.56-57c-4,0-5.08,1.21-5,5.09.23,12.65.21,25.3,0,37.95,0,3.59,1.09,4.58,4.6,4.53q20.63-.24,41.27,0c23.21.23,46.42.5,69.62,1,4.22.09,5.38-1.1,5.29-5.29-.27-12.81-.22-25.62,0-38.43.06-3.69-.94-4.88-4.76-4.85-18.5.2-37,.09-55.5.09S1293.3,216.62,1274.81,216.42ZM891.05,261.08c-.07,2.82.79,3.92,3.76,3.87,25.42-.42,50.85-.67,76.27-1.07,12.14-.19,24.28-.73,36.42-.79,4,0,5.19-1.4,5.13-5.26q-.27-18,0-36c0-3.76-.92-5.36-5-5.35q-55.74.19-111.47,0c-4,0-5.24,1.42-5.1,5.27.23,6.47.06,13,.06,19.44C891.09,247.79,891.19,254.44,891.05,261.08Zm253.06-44.65c-4.24,0-5.75.44-5.51,5.58.58,12.61,0,25.27,0,37.91,0,1,1.31,2.4,2.36,2.93s2.47.12,3.74.12l105.82.07c1.26,0,2.53-.07,3.79,0,7,.54,7,.56,7-6.77,0-11.86-.1-23.73.07-35.59,0-3.37-1.11-4.28-4.36-4.26-19.14.12-38.28.06-57.42.06C1181.12,216.51,1162.62,216.61,1144.11,216.43Zm-616.65-84c0-3.36-1.08-4.31-4.35-4.27q-20.14.23-40.29,0c-4.11,0-5.87,1.24-5.83,5.75.2,23.07.15,46.13,0,69.2,0,3.51.64,5,4.64,5,13.74-.25,27.49-.21,41.24,0,3.54.05,4.63-1,4.57-4.55-.2-11.85-.08-23.7-.08-35.55S527.29,144.24,527.46,132.39ZM1021,203.32c0,3.33.63,4.78,4.39,4.73,13.75-.21,27.49-.18,41.24,0,4.22,0,5.33-1.65,4.46-5.5a25.73,25.73,0,0,1-.55-5.61c0-21.33-.11-42.66.05-64,0-3.71-1-4.88-4.78-4.82q-20.14.33-40.29,0c-3.59,0-4.58,1.09-4.52,4.6.19,11.84.07,23.69.07,35.54C1021.11,179.93,1021.21,191.63,1021,203.32Zm58.87.61c0,3.07.91,4.13,4,4.09q20.88-.2,41.75,0c3,0,3.76-1.12,3.75-3.91q-.12-36.06,0-72.13c0-2.85-.87-3.87-3.8-3.85q-20.88.18-41.75,0c-3.2,0-4,1.14-4,4.15.14,11.87.06,23.73.06,35.59C1080,179.88,1080.05,191.91,1079.91,203.93ZM498,291.29c7.48-.85,14.93-1.92,22.43-2.61,6.58-.6,6.93-.75,6.93-7.11,0-19.9-.09-39.81.08-59.71,0-4.15-1.27-5.5-5.43-5.43-13.58.21-27.17.1-40.75.06-2.41,0-4.27,0-4.25,3.37.11,23.85.08,47.71.11,71.56a10.51,10.51,0,0,0,.63,2.1C484.66,292.76,491.35,292.06,498,291.29Zm-29.77,3.54c.09-1.39.27-2.9.27-4.41,0-22.79-.09-45.57.11-68.36,0-4.45-1.41-5.76-5.74-5.64-9.48.28-19,.19-28.48,0-3.38-.05-4.83,1-4.82,4.58.11,25.16.06,50.32.09,75.48a27.93,27.93,0,0,0,.52,3.64ZM451.88,139.92c-10.85,8.7-19.08,19.54-20.69,33.81-1.17,10.45-1.13,21-1.38,31.58,0,.86,1.84,2.52,2.85,2.53q16.35.28,32.71,0c1.07,0,3-1.83,3-2.82.1-24,0-48-.1-72a12.79,12.79,0,0,0-1.14-1.85C462,134.05,456.39,136.3,451.88,139.92Zm573.06,76.54c-2.82-.05-3.91.82-3.89,3.77q.19,19.46,0,38.91c0,2.79.76,3.93,3.75,3.91q21.11-.19,42.22,0c3.29,0,4.47-1.2,4.44-4.47-.11-12.49-.14-25,0-37.48,0-3.59-1.37-4.7-4.79-4.61-6.8.17-13.6,0-20.4,0C1039.17,216.51,1032.05,216.6,1024.94,216.46ZM1125.06,263c3.16.09,4.48-.72,4.43-4.19-.19-12.79-.16-25.58,0-38.37,0-3.19-1.13-4-4.14-4q-20.83.18-41.69,0c-3.59,0-4.63,1.39-4.59,4.79.13,12.16.11,24.32,0,36.48,0,3.7,1.19,5.47,5.25,5.32,6.78-.26,13.57-.07,20.37-.07S1118.27,262.84,1125.06,263Z"/><path class="cls-9" d="M311.61,117.68q-3.09,1.84-6.17,3.7c-5.37,6.12-12.13,9.56-20.27,9.6q-36.78.17-73.55,0c-8,0-14.31-3.85-19.67-9.73a10.43,10.43,0,0,0-6.63-3.32c-9.78-.2-19.64-.5-29.33.53-17.7,1.89-28.65,13.21-33.72,29.22-5.53,17.48-9.63,35.47-13.35,53.45-3.56,17.21-6.54,34.61-8.38,52.07-1.05,10-2.09,20.46,1.79,30.46,2.89,7.45,10,8.92,16,5.71,8.11-4.38,16.43-9,23.13-15.23A143.17,143.17,0,0,1,213,237.8c12.91-2.47,26.19-3.33,39.35-4.14,17.46-1.07,35-1,52.44-2.17,11.41-.78,22.72-2.94,34.08-4.44a40.43,40.43,0,0,1,4.27-.15c0-5.83.15-11.66.12-17.5,0-5.5,2.22-9.57,7.51-11.29,2.58-.83,3.24-2.26,2.85-4.51-2.29-13,4.16-20.31,15.67-24.84,5.51-2.18,10.54-5.58,15.78-8.42.93-7.29,2.79-14.6,2.57-21.85-.36-11.85-5.62-21.05-20.72-20.82C348.48,118,330,117.7,311.61,117.68Z"/><path class="cls-10" d="M1008.91,396.34v-6.22H540.65v6.22Z"/><path class="cls-11" d="M540.7,373.46v6.06h467.94v-6.06Z"/><path class="cls-10" d="M1145,390.28c-.09,1.1-.22,2-.21,3s.14,1.85.25,3.06h257.44v-6Z"/><path class="cls-3" d="M563.17,423.22l25.05.28c20.93-1.6,35.61,13,44.15,31.65a85.84,85.84,0,0,1,7.76,40.43c-.56,10.23-3.52,20.32-5.25,30.5-.24,1.39.44,2.93.69,4.4l11.17-.12a134.75,134.75,0,0,0,4-41.36c-1.53-22.06-7.51-42.6-21.94-59.95-8.74-10.5-19.72-17.61-33.55-18.44C582.9,409.88,572,414.37,563.17,423.22Z"/><path class="cls-3" d="M1173.08,423.43l25.63.06c19.37-1.06,31.87,9.68,40.43,25.22,13.35,24.24,14.07,50,6.26,76.17-.45,1.49-.75,3-1.11,4.55l12.64-.11c7.72-30.74,5.75-60.5-9.81-88.55C1239.47,427,1228.89,416,1213,411.93,1197.5,408,1184.41,412.79,1173.08,423.43Z"/><path class="cls-11" d="M1402.64,379.51v-6H1145.19v6Z"/><path class="cls-3" d="M311.61,117.68c18.43,0,36.87.27,55.3,0,15.1-.23,20.36,9,20.72,20.82.22,7.25-1.64,14.56-2.57,21.85l7.63-3.74c1-6.53,2.47-13,2.93-19.61a46.38,46.38,0,0,0-1.13-14.44c-2.2-8.71-8.7-13.42-17.7-13.48-19.72-.14-39.44-.11-59.16-.15Z"/><path class="cls-12" d="M1406.83,498.36l2.64,3.94a5.22,5.22,0,0,0,.77-1.67q1.52-27.28,3-54.6c-9.46,4.2-12.23,12.5-13,21.79-.73,8.95,1.59,17.44,4.85,25.7C1405.68,495.12,1406.24,496.75,1406.83,498.36Z"/><path class="cls-9" d="M372.09,208c2.23-4.72,5.17-9.24,6.52-14.19,2-7.34,2.91-15,4.29-22.48-6,3-12.23,5.82-18,9.22-1.67,1-2.72,3.6-3.27,5.68s0,4.39-.18,6.58c-.27,2.86.43,4.56,3.52,5.52C369.44,199.77,371.41,203.54,372.09,208Z"/><ellipse class="cls-2" cx="1131.76" cy="68.91" rx="258.18" ry="0.34"/><path class="cls-13" d="M1433.2,366.49l-3-.08a2.23,2.23,0,0,0-.81.07c.51,1.14,1,2.28,2,4.63C1432.27,368.94,1432.74,367.71,1433.2,366.49Z"/><path class="cls-3" d="M231.7,114.4H218.23c-.89,4.48.62,6.06,4.89,5.83,5.77-.32,11.58-.08,17.53-.08.48-5.38-1.81-9-5.11-12.12-2.41-2.25-5.19-4.11-7.63-6.34s-3.3-5.11-.57-7.36c2.48-2.06,4.62-.73,6.7,1.78,1.23,1.48,4,1.65,6.47,2.52-.24-6-2.83-9.27-7.52-10.31-5.54-1.23-10.84.58-13,4.44-2.26,4.08-1.36,8.91,2.46,12.38,1.62,1.48,3.5,2.68,5.19,4.1,1.53,1.27,3,2.66,4.43,4C232,113.63,231.84,114,231.7,114.4Z"/><path class="cls-3" d="M254.25,96.92l5,.88c1.09-5.16-4.72-9.65-11.74-9v31h6.72Z"/><path class="cls-3" d="M272,97l5.38.82c.73-5.1-4.78-9.39-11.76-9.13v31.2H272Z"/><path class="cls-2" d="M250.77,470.85H231.84c-19.92,0-39.84.07-59.76-.07-3.4,0-4.94.75-4.65,4.46s-.15,7.6.19,11.36c.11,1.19,1.72,3.2,2.65,3.2,26.69.18,53.39.14,80.5.14Z"/><path class="cls-14" d="M112.6,415.83v6.23c1.81.08,3.49.22,5.16.22H298.52c5.82,0,5.82,0,4.93-6.46Z"/><path class="cls-11" d="M303.24,405.07v-6H112.74v6Z"/><path class="cls-2" d="M298.22,470.77a152.05,152.05,0,0,1-20.12-4.55,8.11,8.11,0,0,1-6.18-8.06,9.64,9.64,0,0,1,5.8-9.49c6.51-3.19,13-6.46,19.65-9.29,21.17-9,42.37-17.93,63.66-26.63,6.69-2.73,16,.94,20,7.24a7,7,0,0,1,1.12,4c-.59,7.52-1.07,15.07-2.2,22.52-1.64,10.69-7.88,16.87-18.76,19-16.73,3.33-33.51,5.71-50.61,5.38C306.42,470.89,302.23,471.41,298.22,470.77Zm61.42-9.23c9.94-1.33,15.09-7,16.28-16.73.7-5.8,1.52-11.59,2.1-17.4.66-6.49-7.52-13.43-13.7-11.33-8.52,2.91-17,6.06-25.24,9.61-18.59,8-37.06,16.26-55.55,24.46-3.49,1.55-7.61,3.25-7.44,7.65.17,4.58,4.58,6,8.25,6.52,10.45,1.46,21,2.38,31.25,3.48C330.57,465.66,345.09,463.48,359.64,461.54Z"/><path class="cls-13" d="M1437,366.5h-1.9l1.17,1.47Z"/><path class="cls-8" d="M826.14,532.22l-.51-1.5Z"/><path class="cls-15" d="M1227.48,526.86c-13.15,21.35-36.37,21.52-48.69-.26-12.19-21.53-12.25-44-.11-65.54,12.46-22.15,36.35-21.8,49.21.13,5.9,10.07,8.24,21.09,8.3,33.32C1236,505.58,1233.71,516.75,1227.48,526.86Zm-24.25-21.62c4.4-.06,7.87-5.34,7.76-11.82-.11-6.3-3.6-11.25-7.92-11.21s-7.75,5.17-7.82,11.36C1195.18,500,1198.84,505.3,1203.23,505.24Zm-28.74-6.93c4.67-.83,9.09-1.54,13.47-2.43.71-.15,1.25-1.12,1.87-1.71-.77-.64-1.44-1.68-2.3-1.85-4.14-.87-8.33-1.5-13-2.31Zm31.67-44.71h-5.94c.66,7.38,1.29,14.47,1.92,21.55h2C1204.79,468.08,1205.46,461,1206.16,453.6Zm-6,81h5.91c-.65-7.11-1.29-14.14-1.93-21.18l-2-.12C1201.52,520.31,1200.88,527.27,1200.19,534.65ZM1185,462.38l-4.29,5.89,12,13.15,2-1.13ZM1180.74,520l4.19,6,9.79-18-2.06-1.08Zm44.81-51.69-4.22-6c-3.29,6.6-7.18,12-9.4,18.15l1.73.93Zm6.12,21.73c-4.49.78-8.75,1.42-13,2.31-.78.16-1.37,1.27-2,1.94.64.54,1.21,1.42,1.93,1.57,4.24.89,8.51,1.61,13.09,2.44Zm-10,35.4,3.86-5.41c-4-4.48-7.89-8.76-12.16-13.52C1212.32,510.13,1215.87,517.82,1221.67,525.47Z"/><path class="cls-15" d="M571.1,456.93c12.32-16.43,31.47-16.35,43.75.09,14.81,19.82,14.92,53.13.23,73.12-12.41,16.89-31.94,16.87-44.33-.08-8-10.9-10.6-23.42-10.93-36.49C560.17,480.21,563,467.73,571.1,456.93Zm22,48.3c4.16-.07,7.45-4.8,7.61-10.92.17-6.88-3.29-12.21-7.87-12.1-4.43.11-7.7,5.22-7.6,11.88C585.31,500.51,588.69,505.3,593.07,505.23ZM596,453.58h-6c.7,7.39,1.36,14.46,2,21.53h1.95C594.59,468,595.25,461,596,453.58Zm-6,81.18h6l-2-21.45H592C591.32,520.37,590.65,527.42,590,534.76Zm21.2-8.8,4.17-6L603.5,507l-1.72.85C603.86,514.07,607.85,519.44,611.16,526Zm2.92-56.65c.8-1.14-1.13-4.19-2.45-6.34-3.71,5.89-7.88,11.22-9.73,17.64l1.47.9C607,477.5,611,473.71,614.08,469.31ZM574.76,526c3.3-6.57,7.13-12,9.46-18.13l-1.65-1-12,13.14Zm-.46-53.38c3,2.63,5.53,5.87,9,8.45-.86-6.81-5.42-11.89-8.16-18.26C570.51,466.28,570.34,469.18,574.3,472.62Zm-9.79,25.64c4.4-.77,8.56-1.42,12.68-2.29.87-.19,1.58-1.15,2.37-1.76-.75-.65-1.41-1.7-2.25-1.87-4.13-.87-8.31-1.49-12.8-2.26Zm56.88-8.15c-4.43.74-8.57,1.35-12.66,2.18-.88.17-1.6,1.11-2.39,1.7.85.69,1.61,1.79,2.57,2,4,.88,8,1.5,12.48,2.31Z"/><path class="cls-9" d="M760.33,128.49c-.11,1.68-.29,3.06-.29,4.44,0,23.41.05,46.82-.09,70.23,0,3.63.84,4.9,4.73,4.89q56.7-.21,113.41,0c3.58,0,4.55-1.09,4.53-4.6-.13-23.56-.1-47.13,0-70.7,0-2.92-.28-4.64-4-4.63-38.6.12-77.19.08-115.79.09C762.2,128.2,761.57,128.34,760.33,128.49Z"/><path class="cls-9" d="M1200,208c18.82,0,37.64-.1,56.46.1,4,0,5-1.22,5-5.1q-.26-35.11,0-70.23c0-3.47-.86-4.64-4.49-4.62q-56.94.18-113.89,0c-3.37,0-4.28,1.09-4.27,4.35q.18,35.6,0,71.18c0,3.78,1.43,4.4,4.75,4.37C1162.32,207.9,1181.15,208,1200,208Z"/><path class="cls-9" d="M952.34,208c18.5,0,37-.1,55.49.08,3.76,0,4.84-1.05,4.81-4.81q-.24-35.1,0-70.19c0-3.5-.62-5-4.63-5q-56.21.22-112.4,0c-3.54,0-4.59,1-4.57,4.55q.21,35.33,0,70.66c0,3.89,1.27,4.75,4.89,4.72C914.71,207.88,933.53,208,952.34,208Z"/><path class="cls-9" d="M1269.89,128.18c0,2.16,0,3.42,0,4.67,0,23.42.06,46.84-.07,70.25,0,3.52.68,5,4.66,5q55.79-.24,111.55,0c3.59,0,4.65-1.08,4.54-4.6-.24-7.75.24-15.52-.15-23.25-.79-15.64-7.64-28.38-19.47-38.51s-25.77-13.89-41.22-13.58c-18,.36-36.07.08-54.11.08Z"/><path class="cls-9" d="M698.81,208c16,0,32-.1,47.92.08,3.72.05,4.86-1,4.83-4.78q-.24-35.1,0-70.21c0-3.5-.63-5-4.64-5q-48.61.24-97.25,0c-3.51,0-4.61.95-4.59,4.53q.21,35.58,0,71.16c0,3.45,1.23,4.25,4.41,4.22C665.92,207.9,682.37,208,698.81,208Z"/><path class="cls-9" d="M586.14,208c15.18,0,30.36-.09,45.54.06,3.47,0,5-.58,5-4.62q-.28-35.34,0-70.68c0-3.45-.85-4.64-4.49-4.62q-46,.19-92,0c-3.39,0-4.27,1.12-4.26,4.36q.18,35.58,0,71.16c0,3.77,1.41,4.42,4.74,4.39C555.78,207.88,571,208,586.14,208Z"/><path class="cls-9" d="M536.3,286.67c8.34-.76,16.15-1.43,24-2.19s15.62-1.73,23.44-2.46c13.94-1.29,27.88-2.47,41.82-3.69l1.42-.11c9.66-.67,9.66-.67,9.66-10.62,0-15.19-.16-30.38.09-45.57.07-4.49-1.48-5.62-5.77-5.6-30.06.15-60.12.09-90.19.06-2.66,0-4.88-.26-4.85,3.74.16,21.2.08,42.41.09,63.61A28.42,28.42,0,0,0,536.3,286.67Z"/><path class="cls-9" d="M821.27,216.51c-18.82,0-37.65.09-56.47-.08-3.66,0-4.92.89-4.87,4.75.23,14.71.17,29.42,0,44.13,0,3.18.73,4.57,4.21,4.39,19.82-1,39.64-2.06,59.47-2.79,16.09-.59,32.2-.74,48.29-1.08,1.27,0,2.54,0,3.8,0,6.44-.29,6.81-.69,6.81-7.16,0-12.34-.2-24.68.11-37,.1-4.34-1.34-5.26-5.4-5.21C858.6,216.62,839.93,216.51,821.27,216.51Z"/><path class="cls-9" d="M645.75,276.63q27.71-1.61,55.5-3.22c15.55-.92,31.1-1.94,46.66-2.76,2.6-.14,3.63-.86,3.61-3.57q-.13-23.25,0-46.51c0-3.15-1.35-4.09-4.31-4.09q-49.11.08-98.24,0c-2,0-3.86-.13-3.84,2.78.13,19,.2,37.93.31,56.9C645.43,276.32,645.61,276.44,645.75,276.63Z"/><path class="cls-9" d="M1330.31,216.51c-18.5,0-37,.11-55.5-.09-4,0-5.08,1.21-5,5.09.23,12.65.21,25.3,0,37.95,0,3.59,1.09,4.58,4.6,4.53q20.63-.24,41.27,0c23.21.23,46.42.5,69.62,1,4.22.09,5.38-1.1,5.29-5.29-.27-12.81-.22-25.62,0-38.43.06-3.69-.94-4.88-4.76-4.85C1367.31,216.62,1348.81,216.51,1330.31,216.51Z"/><path class="cls-9" d="M891.09,241.15c0,6.64.1,13.29,0,19.93-.07,2.82.79,3.92,3.76,3.87,25.42-.42,50.85-.67,76.27-1.07,12.14-.19,24.28-.73,36.42-.79,4,0,5.19-1.4,5.13-5.26q-.27-18,0-36c0-3.76-.92-5.36-5-5.35q-55.74.19-111.47,0c-4,0-5.24,1.42-5.1,5.27C891.26,228.18,891.09,234.67,891.09,241.15Z"/><path class="cls-9" d="M1199.63,216.51c-18.51,0-37,.1-55.52-.08-4.24,0-5.75.44-5.51,5.58.58,12.61,0,25.27,0,37.91,0,1,1.31,2.4,2.36,2.93s2.47.12,3.74.12l105.82.07c1.26,0,2.53-.07,3.79,0,7,.54,7,.56,7-6.77,0-11.86-.1-23.73.07-35.59,0-3.37-1.11-4.28-4.36-4.26C1237.91,216.57,1218.77,216.51,1199.63,216.51Z"/><path class="cls-9" d="M527.39,167.94c0-11.85-.1-23.7.07-35.55,0-3.36-1.08-4.31-4.35-4.27q-20.14.23-40.29,0c-4.11,0-5.87,1.24-5.83,5.75.2,23.07.15,46.13,0,69.2,0,3.51.64,5,4.64,5,13.74-.25,27.49-.21,41.24,0,3.54.05,4.63-1,4.57-4.55C527.27,191.64,527.39,179.79,527.39,167.94Z"/><path class="cls-9" d="M1021.11,168.24c0,11.69.1,23.39-.07,35.08,0,3.33.63,4.78,4.39,4.73,13.75-.21,27.49-.18,41.24,0,4.22,0,5.33-1.65,4.46-5.5a25.73,25.73,0,0,1-.55-5.61c0-21.33-.11-42.66.05-64,0-3.71-1-4.88-4.78-4.82q-20.14.33-40.29,0c-3.59,0-4.58,1.09-4.52,4.6C1021.23,144.54,1021.11,156.39,1021.11,168.24Z"/><path class="cls-9" d="M1080,167.86c0,12,.08,24-.06,36.07,0,3.07.91,4.13,4,4.09q20.88-.2,41.75,0c3,0,3.76-1.12,3.75-3.91q-.12-36.06,0-72.13c0-2.85-.87-3.87-3.8-3.85q-20.88.18-41.75,0c-3.2,0-4,1.14-4,4.15C1080.05,144.14,1080,156,1080,167.86Z"/><path class="cls-9" d="M477.78,293.52c6.88-.76,13.57-1.46,20.25-2.23,7.48-.85,14.93-1.92,22.43-2.61,6.58-.6,6.93-.75,6.93-7.11,0-19.9-.09-39.81.08-59.71,0-4.15-1.27-5.5-5.43-5.43-13.58.21-27.17.1-40.75.06-2.41,0-4.27,0-4.25,3.37.11,23.85.08,47.71.11,71.56A10.51,10.51,0,0,0,477.78,293.52Z"/><path class="cls-9" d="M430.21,300.16l38.05-5.33c.09-1.39.27-2.9.27-4.41,0-22.79-.09-45.57.11-68.36,0-4.45-1.41-5.76-5.74-5.64-9.48.28-19,.19-28.48,0-3.38-.05-4.83,1-4.82,4.58.11,25.16.06,50.32.09,75.48A27.93,27.93,0,0,0,430.21,300.16Z"/><path class="cls-9" d="M467.16,131.14c-5.17,2.91-10.77,5.16-15.28,8.78-10.85,8.7-19.08,19.54-20.69,33.81-1.17,10.45-1.13,21-1.38,31.58,0,.86,1.84,2.52,2.85,2.53q16.35.28,32.71,0c1.07,0,3-1.83,3-2.82.1-24,0-48-.1-72A12.79,12.79,0,0,0,467.16,131.14Z"/><path class="cls-9" d="M1046.29,216.51c-7.12,0-14.24.09-21.35,0-2.82-.05-3.91.82-3.89,3.77q.19,19.46,0,38.91c0,2.79.76,3.93,3.75,3.91q21.11-.19,42.22,0c3.29,0,4.47-1.2,4.44-4.47-.11-12.49-.14-25,0-37.48,0-3.59-1.37-4.7-4.79-4.61C1059.89,216.63,1053.09,216.51,1046.29,216.51Z"/><path class="cls-9" d="M1104.69,263c6.79,0,13.58-.13,20.37,0,3.16.09,4.48-.72,4.43-4.19-.19-12.79-.16-25.58,0-38.37,0-3.19-1.13-4-4.14-4q-20.83.18-41.69,0c-3.59,0-4.63,1.39-4.59,4.79.13,12.16.11,24.32,0,36.48,0,3.7,1.19,5.47,5.25,5.32C1091.1,262.78,1097.89,263,1104.69,263Z"/><path class="cls-16" d="M315.59,467.8c15-2.14,29.5-4.32,44.05-6.26,9.94-1.33,15.09-7,16.28-16.73.7-5.8,1.52-11.59,2.1-17.4.66-6.49-7.52-13.43-13.7-11.33-8.52,2.91-17,6.06-25.24,9.61-18.59,8-37.06,16.26-55.55,24.46-3.49,1.55-7.61,3.25-7.44,7.65.17,4.58,4.58,6,8.25,6.52C294.79,465.78,305.31,466.7,315.59,467.8Z"/><path class="cls-8" d="M1195.25,493.57c-.07,6.38,3.59,11.73,8,11.67s7.87-5.34,7.76-11.82c-.11-6.3-3.6-11.25-7.92-11.21S1195.32,487.38,1195.25,493.57Z"/><path class="cls-17" d="M1174.49,490v8.3c4.67-.83,9.09-1.54,13.47-2.43.71-.15,1.25-1.12,1.87-1.71-.77-.64-1.44-1.68-2.3-1.85C1183.39,491.45,1179.2,490.82,1174.49,490Z"/><path class="cls-17" d="M1204.13,475.15c.66-7.07,1.33-14.13,2-21.55h-5.94c.66,7.38,1.29,14.47,1.92,21.55Z"/><path class="cls-17" d="M1202.17,513.35c-.65,7-1.29,13.92-2,21.3h5.91c-.65-7.11-1.29-14.14-1.93-21.18Z"/><path class="cls-17" d="M1194.71,480.29,1185,462.38l-4.29,5.89,12,13.15Z"/><path class="cls-17" d="M1192.66,506.92,1180.74,520l4.19,6,9.79-18Z"/><path class="cls-17" d="M1213.66,481.41l11.89-13.07-4.22-6c-3.29,6.6-7.18,12-9.4,18.15Z"/><path class="cls-17" d="M1231.67,498.33v-8.26c-4.49.78-8.75,1.42-13,2.31-.78.16-1.37,1.27-2,1.94.64.54,1.21,1.42,1.93,1.57C1222.82,496.78,1227.09,497.5,1231.67,498.33Z"/><path class="cls-17" d="M1213.37,506.54c-1,3.59,2.5,11.28,8.3,18.93l3.86-5.41C1221.5,515.58,1217.64,511.3,1213.37,506.54Z"/><path class="cls-8" d="M585.21,494.09c.1,6.42,3.48,11.21,7.86,11.14,4.16-.07,7.45-4.8,7.61-10.92.17-6.88-3.29-12.21-7.87-12.1C588.38,482.32,585.11,487.43,585.21,494.09Z"/><path class="cls-17" d="M593.93,475.12c.66-7.08,1.32-14.15,2-21.54h-6c.7,7.39,1.36,14.46,2,21.53Z"/><path class="cls-17" d="M592,513.32c-.66,7-1.33,14.1-2,21.44h6l-2-21.45Z"/><path class="cls-17" d="M601.78,507.8c2.08,6.27,6.07,11.64,9.38,18.16l4.17-6L603.5,507Z"/><path class="cls-17" d="M603.37,481.51c3.64-4,7.61-7.8,10.71-12.2.8-1.14-1.13-4.19-2.45-6.34-3.71,5.89-7.88,11.22-9.73,17.64Z"/><path class="cls-17" d="M570.54,520l4.22,6c3.3-6.57,7.13-12,9.46-18.13l-1.65-1Z"/><path class="cls-17" d="M575.1,462.81c-4.59,3.47-4.76,6.37-.8,9.81,3,2.63,5.53,5.87,9,8.45C582.4,474.26,577.84,469.18,575.1,462.81Z"/><path class="cls-17" d="M564.51,490.08v8.18c4.4-.77,8.56-1.42,12.68-2.29.87-.19,1.58-1.15,2.37-1.76-.75-.65-1.41-1.7-2.25-1.87C573.18,491.47,569,490.85,564.51,490.08Z"/><path class="cls-17" d="M621.39,498.31v-8.2c-4.43.74-8.57,1.35-12.66,2.18-.88.17-1.6,1.11-2.39,1.7.85.69,1.61,1.79,2.57,2C612.87,496.88,616.89,497.5,621.39,498.31Z"/><path class="cls-3" d="M191,121.38c5.38,6.12,12.14,9.56,20.29,9.6q36.76.17,73.54,0c8-.05,14.31-3.85,19.67-9.73,1.06-1.16-4.31-4.8-2.68-5.39l.95-5.7,5.69-1.9c-.87-5.3,1.27-9.38.47-14.26-6-12-15.69-17.29-29.11-17.09-22.29.34-44.59.13-66.88.09-11.74,0-20.51,5.13-25.59,15.57C182.39,102.71,184,112.5,191,121.38ZM260.9,108c2.41-2.25,5.19-4.11,7.63-6.34s3.3-5.11.57-7.36c-2.48-2.06-4.62-.73-6.71,1.79-1.22,1.48-4,1.64-6.45,2.51.23-6,2.82-9.27,7.51-10.31,5.54-1.23,10.84.58,13,4.43,2.26,4.09,1.36,8.92-2.45,12.39-1.64,1.49-3.51,2.68-5.21,4.1-1.52,1.27-2.95,2.66-4.43,4,.13.38.28.77.41,1.16h13.47c.88,4.48-.62,6.06-4.9,5.82-5.77-.3-11.57-.07-17.52-.07C255.31,114.77,257.6,111.13,260.9,108Zm-12-19.24v31h-6.72V96.92c-2,.34-3.51.61-5,.88C236.08,92.64,241.89,88.15,248.91,88.79Zm-18.1-.16v31.21h-6.39V97l-5.37.82C218.32,92.68,223.83,88.38,230.81,88.63Z"/><path class="cls-16" d="M219.05,97.77l5.37-.82v22.89h6.39V88.63C223.83,88.38,218.32,92.68,219.05,97.77Z"/><path class="cls-16" d="M237.17,97.8c1.51-.27,3-.54,5-.88v22.84h6.72v-31C241.89,88.15,236.08,92.64,237.17,97.8Z"/><path class="cls-16" d="M255.79,120.15c6,0,11.75-.23,17.52.07,4.28.24,5.78-1.34,4.9-5.82H264.74c-.13-.39-.28-.78-.41-1.16,1.48-1.34,2.91-2.73,4.43-4,1.7-1.42,3.57-2.61,5.21-4.1,3.81-3.47,4.71-8.3,2.45-12.39-2.13-3.85-7.43-5.66-13-4.43-4.69,1-7.28,4.26-7.51,10.31,2.42-.87,5.23-1,6.45-2.51,2.09-2.52,4.23-3.85,6.71-1.79,2.73,2.25,1.81,5.17-.57,7.36s-5.22,4.09-7.63,6.34C257.6,111.13,255.31,114.77,255.79,120.15Z"/></svg>