<svg id="Layer_1" data-name="Layer 1" xmlns="http://www.w3.org/2000/svg" viewBox="0 0 500 500"><path d="M500,116c-2.48,12.35-10.16,21.27-18.8,29.89Q346,280.81,211,416c-12.15,12.16-26.29,17.47-42.91,11.63a46.27,46.27,0,0,1-16.62-10.52Q82.42,348.69,13.9,279.71C-4.57,261.15-3,234.5,17.07,218.82c15.67-12.23,37.75-10,53.36,5.57q53,52.82,105.77,105.8c1.36,1.36,2.26,3.19,4.17,6,2.08-2.83,3-4.43,4.2-5.67Q307.38,207.6,430.22,84.75C442.09,72.87,455.87,67.88,472.31,73c14.36,4.5,22.94,14.63,26.7,29,.28,1.07.66,2.12,1,3.18Z"/></svg>