<svg id="Layer_1" data-name="Layer 1" xmlns="http://www.w3.org/2000/svg" viewBox="0 0 500 500"><defs><style>.cls-1{fill:#fff;}</style></defs><path class="cls-1" d="M466,61c-2.38-5.14-4.21-10.64-7.28-15.31-4.34-6.59-11.55-9.35-18.83-11.64H466Z"/><path d="M295.05,34H439.89c7.28,2.29,14.49,5,18.83,11.64,3.07,4.67,4.9,10.17,7.28,15.31V258.84a3.38,3.38,0,0,0-.45.71c-5.2,18.09-15.76,26-34.67,26q-64,0-128-.05a44.1,44.1,0,0,1-10.83-1.13c-14.72-3.73-23.73-16-23.75-32.17q-.06-59.14,0-118.29c0-22.31-.05-44.62,0-66.93.05-14.64,7.59-26,20.38-30.93C290.78,35.28,292.94,34.69,295.05,34Z"/><path d="M205.79,34c5.34,2.64,11.24,4.53,15.88,8.07,7.68,5.87,10.8,14.51,10.83,24.1.07,26.52.2,53.05,0,79.57-.17,18.48-13.55,31.9-32.05,32q-66.72.3-133.46,0c-18.87-.07-32.07-13.82-32.1-32.76q-.06-38.75,0-77.47c0-17.07,8.48-28.11,25.1-32.81A4.43,4.43,0,0,0,61,34Z"/><path d="M466,438.21c-.76,2.37-1.34,4.83-2.32,7.11-5.35,12.39-14.86,19.59-28.29,19.69-45.47.32-90.93.25-136.4.05-16.76-.07-30.25-13.51-30.52-30.79-.43-27.36-.47-54.74,0-82.09.32-18.13,14.19-30.73,32.74-30.78,31.71-.1,63.42,0,95.14,0,11.93,0,23.85,0,35.78,0,17.54,0,28.75,8.71,33.25,25.64a5.92,5.92,0,0,0,.6,1.1Z"/><path d="M34.84,339.29q0-46.08,0-92.17c0-20.17,13.27-33.5,33.46-33.53q65.44-.06,130.89,0c19.9,0,33.29,13.4,33.31,33.31q.08,92.39,0,184.76c0,20.21-13.36,33.47-33.52,33.48q-65.44,0-130.89,0c-19.93,0-33.23-13.34-33.25-33.27Q34.81,385.59,34.84,339.29Z"/></svg>