<svg id="Layer_1" data-name="Layer 1" xmlns="http://www.w3.org/2000/svg" viewBox="0 0 500 500"><path d="M130.57,487c-4.06-1.37-8.33-2.29-12.13-4.17-16-7.91-22.64-21.49-24-38.8-4.52-57.79-9.39-115.56-14.16-173.33q-3.45-41.71-7-83.43c-.14-1.68,0-3.38,0-5.43h353.8c-.82,10.32-1.6,20.55-2.45,30.78q-3.48,41.94-7,83.89-4,48.39-8,96.79c-1.56,18.75-2.77,37.53-4.8,56.23-2.11,19.49-14.45,32.48-33.7,36.73a8.54,8.54,0,0,0-1.64.74Zm50-166.58q0-47.87,0-95.74c0-9.57-5.43-15.42-14-15.3s-13.72,5.86-13.72,15.17q0,95.73,0,191.47a29.15,29.15,0,0,0,.08,3.24,12.69,12.69,0,0,0,9.42,11.34c9.88,3,18.23-3.33,18.25-14Q180.63,368.52,180.57,320.42Zm55.55-.55v9.71q0,43.49,0,86.95c0,7.37,3.08,12,9.09,14,10.09,3.32,18.66-3.24,18.67-14.4q0-95.73,0-191.47a26.91,26.91,0,0,0-.09-3.24c-.72-5.55-3.65-9.4-9-11.19-9.92-3.31-18.64,3.15-18.66,13.92Q236.07,272,236.12,319.87Zm111.11,1v-3.7q0-46.74,0-93.47c0-7.69-5.23-13.52-12.41-14.33a14,14,0,0,0-15,11,29,29,0,0,0-.33,6q0,94.15,0,188.32c0,1.54-.07,3.1.08,4.63A12.68,12.68,0,0,0,329,430.6c9.89,3,18.24-3.33,18.26-14Q347.29,368.72,347.23,320.83Z"/><path d="M291.68,13c2.61.82,5.27,1.53,7.84,2.48,11.8,4.33,20.23,12.27,24.7,24,3.16,8.34,5.92,16.85,8.57,25.37.9,2.87,2.23,3.75,5.2,3.74,25.45-.12,50.9-.09,76.35-.07,26.17,0,43.93,17.7,44,43.74,0,8.18.05,16.35,0,24.52-.06,9.29-5.74,15-15,15q-191.35,0-382.7,0a44.59,44.59,0,0,1-5.54-.27c-10-1.28-13.45-5.13-13.36-15.23.1-11.09-.6-22.31.9-33.23,2.76-20,20-34.36,40.29-34.51q39.09-.3,78.2,0c3.77,0,5.41-1.07,6.45-4.64,2.09-7.24,4.62-14.36,7.06-21.5,5.32-15.57,15.95-25.24,32.1-28.74a7.8,7.8,0,0,0,1.63-.77Zm13.11,55.36c-2.35-6.84-4.28-13.5-7-19.84-2.15-5.1-6.65-7.68-12.2-7.7q-35.64-.12-71.26,0c-5.56,0-10.06,2.62-12.21,7.7-2.68,6.34-4.59,13-6.95,19.84Z"/></svg>