<svg id="Layer_1" data-name="Layer 1" xmlns="http://www.w3.org/2000/svg" viewBox="0 0 500 500"><path d="M439,406.58c-1.82,4.78-2.93,10-5.58,14.25-8.38,13.42-21.27,17.22-36.32,15.6-9.32-1-16.84-5.36-23.41-11.95Q313.6,364.23,253.38,304.09c-1-1-1.93-2.22-3.13-3.61-1.43,1.36-2.48,2.32-3.48,3.32L124.59,426c-12.17,12.16-33.35,14.5-48,5.31C60,420.86,56.75,395.89,70,380.12c1.26-1.5,2.64-2.91,4-4.29Q135.2,314.6,196.44,253.4a38.62,38.62,0,0,1,3.34-2.66c-1.41-1.51-2.28-2.49-3.2-3.42Q135.37,186.11,74.15,124.88A35.64,35.64,0,0,1,119.7,70.4,40.17,40.17,0,0,1,125,75q60.65,60.24,121.23,120.52c1.22,1.21,2.35,2.5,3.84,4.1,1.25-1.19,2.3-2.13,3.3-3.12q60.3-60.3,120.62-120.6C393.79,56.08,426.3,63.72,434,90.09c3.88,13.26,1.09,25.31-8.84,35.26Q364.8,185.83,304.32,246.23c-1,1-2.26,1.89-3.72,3.09,1.38,1.46,2.33,2.51,3.33,3.5Q364,312.56,424.19,372.23C431.37,379.32,436.93,387,439,397Z"/></svg>