<svg id="Layer_1" data-name="Layer 1" xmlns="http://www.w3.org/2000/svg" viewBox="0 0 500 500"><path d="M28.2,265.68c0-51.31.63-102.63-.24-153.92C27.44,81.36,50,59,80.42,59.47c60.08.91,120.18.27,180.27.27,1.85,0,3.7-.06,5.54,0,8.58.51,14.95,6.64,15.48,14.84a16.12,16.12,0,0,1-14.24,16.8,55.11,55.11,0,0,1-7.61.2H80.28c-15.21,0-20.34,5.13-20.34,20.33q0,153.92,0,307.84c0,15,5.33,20.28,20.51,20.28q138,0,276,0c15.15,0,20.23-5.09,20.24-20.43q0-73.85.05-147.68a44.23,44.23,0,0,1,1-10.28,15.31,15.31,0,0,1,16.6-11.65,15.62,15.62,0,0,1,14.06,14.67c.11,1.61.08,3.23.08,4.85,0,50.61-.63,101.24.25,151.84.47,27.35-20.76,50.73-50.45,50.59-93.13-.45-186.27-.14-279.41-.18-30.69,0-50.6-20-50.62-50.84Q28.15,343.34,28.2,265.68Z"/><path d="M472.05,86c-.35,20.43-7.24,35.17-19.81,47.66q-47,46.62-93.62,93.54-54.87,54.87-109.86,109.64a36.08,36.08,0,0,1-13.09,8.49q-44.1,15.19-88.53,29.36a25.76,25.76,0,0,1-14.71.1c-7.65-2.45-10.79-11.43-7.84-20.4q15.14-45.93,30.75-91.7a28.18,28.18,0,0,1,6.61-10.3Q264.46,149.63,367.25,47.12C401.58,13,455.8,26.49,469.56,72.34,471.13,77.58,471.55,83.17,472.05,86ZM164.4,335.7c19.92-6.64,37.88-12.44,55.68-18.68a28.49,28.49,0,0,0,10.24-6.53q71.91-71.58,143.57-143.4c18.94-18.93,38-37.73,56.76-56.86,15.29-15.59,11.74-38.47-7-47.49-12.13-5.83-24.2-3-35.6,8.38q-94,94-188.21,187.91c-10.08,10-18,20.35-21.7,34.3C174.51,307,169.44,320.34,164.4,335.7Z"/></svg>