<svg id="Layer_1" data-name="Layer 1" xmlns="http://www.w3.org/2000/svg" viewBox="0 0 500 500"><defs><style>.cls-1{fill:#fff;}</style></defs><path class="cls-1" d="M214.45,472c-8.34-2.35-14.65-7.65-20.63-13.66Q159.74,424.05,125.47,390c-7.13-7.12-12.13-15.33-13.44-25.54-1.72-13.34,1.94-25.1,11.29-34.54q38.43-38.82,77.45-77c6.11-6,13.88-8.92,22.68-6.48,9.29,2.58,15.38,11.2,16,22.91.39,7.64.28,15.32.19,23,0,2.56.8,3.39,3.35,3.79q57.63,9,110-16.54a181.69,181.69,0,0,0,63.27-50.93c1.7-2.14,3.33-4.37,5.21-6.36,4.19-4.43,10-5.57,15-3.17s8.45,7.71,7.33,13.51c-2.52,13.16-4.68,26.5-8.65,39.25A212.58,212.58,0,0,1,377.4,364c-26.47,25.07-57.23,43-92.59,52.17-13.2,3.44-26.91,5-40.39,7.34-1.41.25-2.83.39-4.76.64,0,6.31.39,12.5-.11,18.63a74.48,74.48,0,0,1-3,16.45c-2.16,6.79-8,10.26-14.31,12.74Z"/><path class="cls-1" d="M285.57,28c8.57,2.57,15,8.21,21.15,14.41q33.76,34,67.74,67.77c10,10,15,21.73,13.43,36a38.38,38.38,0,0,1-11,23.48c-25.9,26-51.82,52-78.05,77.68-6.48,6.35-14.84,9.27-24,5.87-9.87-3.67-13.76-11.93-14.45-21.73-.55-7.77-.31-15.6-.31-23.4,0-2.31-.35-3.62-3.13-4q-68.56-10.5-127.41,26.14A177.79,177.79,0,0,0,83.14,272c-1.34,1.7-2.63,3.45-4,5.1-4.13,4.86-10,6.45-15.14,4.21-5.73-2.49-9.08-8-8-14.38,1.76-10.23,3.3-20.57,6.14-30.53,15-52.47,45.13-94.15,90.51-124.42A212.12,212.12,0,0,1,255.49,76.54c3.78-.29,4.89-1.52,4.71-5.23-.27-5.76-.07-11.55.08-17.33.33-12.33,5.07-21.75,17.48-26Z"/></svg>