<svg id="Layer_1" data-name="Layer 1" xmlns="http://www.w3.org/2000/svg" viewBox="0 0 500 500"><path d="M261.26,19c9.14,1.51,18.37,2.58,27.4,4.59,66.77,14.83,119.74,71.3,131.27,138.79,6.14,36-.09,70.11-13.18,103.46-15.06,38.37-36.52,73.15-60.67,106.35a855,855,0,0,1-89.2,103.58c-5.92,5.89-8.74,5.9-14.66,0-45.44-45.47-86.53-94.46-119.78-149.66C104,295.4,88.7,263.3,80.75,228.07,64.54,156.25,98.31,79.39,162.18,42.78c22.59-12.94,46.67-20.92,72.65-23a18.85,18.85,0,0,0,3-.73ZM328.8,191.89c-.17-43.9-35.74-79.38-79.39-79.2a79.27,79.27,0,0,0-79.1,79.92c.13,43.48,36.12,78.78,80.05,78.54C293.5,270.91,329,235.08,328.8,191.89Z"/></svg>