<svg xmlns="http://www.w3.org/2000/svg" viewBox="0 0 630 630"><defs><style>.cls-1,.cls-2{fill:#fff;}.cls-2{font-size:87.87px;font-family:RimouskiSb-Regular, Rimouski;}.cls-3{letter-spacing:-0.05em;}.cls-4{letter-spacing:-0.04em;}.cls-5{letter-spacing:0em;}</style></defs><g id="Layer_3" data-name="Layer 3"><path class="cls-1" d="M469.44,275a95.54,95.54,0,0,1-33.13,39,102.86,102.86,0,0,1-27.74,13.14l-.05,0a90.77,90.77,0,0,1-20.9,4H230.89a47.33,47.33,0,0,0-8.16.68c-2.71.69-5.25,1.41-7.59,2.17l-.06,0a22.25,22.25,0,0,0-7.85,5c0-.7,0-1.38,0-2.07a103.66,103.66,0,0,1,1.92-19.13C219,269.54,262.44,275,262.44,275Z"/><path class="cls-1" d="M603.49,183.75C567.21,260.14,508,260.14,508,260.14H297.94c-70.63,0-84,22.92-84,22.92a163.81,163.81,0,0,1,7.73-16.24c44.18-81.36,135.5-83.07,135.5-83.07Z"/><path class="cls-1" d="M191.17,199.82h-2.56q-21.92.52-43.82,1.22c-20.29.63-40.52,3.21-59.81,10.23-3.31,1.19-6,3.89-9.14,5.77a16.2,16.2,0,0,1-4.29,1.87c-7.83,2-16,2.92-23.47,5.82-19.5,7.58-22.14,17.06-21.48,36.86.1,3.49,2,5.37,5.83,5.37,4.1,0,4.24-2.71,4.45-5.49.44-5.32.56-10.69,1.23-16,.51-4,2.13-7.84,5.92-9.91,7.51-4.12,15.7-5.26,24.74-5.35-2.12,6.84-4.38,12.89-5.85,19.11-5.64,23.72-11.46,47.42-16.31,71.3-2,10.12-2.38,20.7-2.57,31.09a48.21,48.21,0,0,0,6.64,26c2.2,3.7,5.17,5.77,9.69,5.76q45.89-.12,91.8,0c3.69,0,4.67-1.44,4.62-4.92-.06-4.93-.18-10,.85-14.74,2.55-11.72,9.66-23.48,24.69-24.26,4.79-.24,9.63-.31,14.44-.17,1.69-15.42,11.32-103.24,13-120.77a6.45,6.45,0,0,1,.1-1c0-.16,0-.31,0-.46C211.25,202.5,201.88,199.82,191.17,199.82ZM67.86,247.24c1.22-4.5,2.07-9.11,3.52-13.52a5.1,5.1,0,0,1,3.55-2.82,78.85,78.85,0,0,1,9.85-.13c3.14,0,6.3,0,9.45,0,2.32-.07,3.61.6,3.55,3.23-.11,4.66-.07,9.31,0,14,0,2.33-1.06,3.14-3.26,3.12-8-.05-15.9-.08-23.85,0C67.7,251.11,67.17,249.82,67.86,247.24Zm29.92,31c0,4.66-.07,9.32,0,14a4.84,4.84,0,0,1-3.61,5.25c-11.24,4-22.44,8-33.65,12.07-3,1.07-4.59.17-4.35-3.11a24.94,24.94,0,0,1,.89-5.63c3.83-12.29,7.86-24.53,11.6-36.84,1-3.35,2.72-4.59,6.19-4.46,6,.24,12,.19,18.08,0,3.44-.08,5,1.07,4.88,4.74C97.62,268.88,97.78,273.54,97.78,278.2ZM196,268.76c0,3.56-1,4.77-4.63,4.73-17.27-.18-7.78-.18-25.05,0a32.24,32.24,0,0,0-10,1.7c-15.17,5.19-30.25,10.64-45.38,16-5.74,2-7.19,1-7-5.24.77-21.8,1.67-43.58,2.39-65.36.14-4,2.07-5.1,5.73-5.09,17.69.1,35.39,0,53.07,0h0c17.69,0,14,.11,31.65-.08,3.76,0,4.58,1.32,4.55,4.79C199.2,236,197.86,252,196,268.76Z"/><path class="cls-1" d="M194.43,347.55a29.21,29.21,0,1,0,29.36,29.25A29.42,29.42,0,0,0,194.43,347.55Zm0,47.72a18.52,18.52,0,1,1,18.62-18.49A18.56,18.56,0,0,1,194.43,395.27Z"/><text class="cls-2" transform="translate(235.34 408.75)"><tspan class="cls-3">f</tspan><tspan x="20.65" y="0">a</tspan><tspan class="cls-4" x="78.38" y="0">r</tspan><tspan class="cls-5" x="106.41" y="0">eease</tspan></text></g></svg>