<svg id="Layer_1" data-name="Layer 1" xmlns="http://www.w3.org/2000/svg" viewBox="0 0 500 500"><path d="M326.44,462H315.69c-.21-.17-.4-.43-.64-.49-20.15-5.43-29.31-17.35-29.32-38.19V409.09h-5c-16.53,0-33.06.18-49.59-.08-26.2-.41-50-22.19-50.82-47.81s-.36-51.24-.23-76.86c0-6.42,3.53-11.22,9.16-14.24,11.79-6.31,25.64,1.95,25.76,15.57.2,22.87,0,45.74.08,68.61,0,12.37,7.14,19.43,19.53,19.45q23.35.06,46.7,0c1.33,0,2.67-.12,4.43-.21v-5.58c0-83.36.29-166.71-.21-250.06-.13-20.68,5.9-36,26.45-43.83H235.36c-13.47,0-20.29,6.85-20.3,20.35,0,16.53.07,33.06,0,49.6-.07,10.53-7.44,18-17.43,18.07S180,154.65,180,144.19c-.12-17.91,0-35.82,0-53.73a41.87,41.87,0,0,1,.53-7c4.69-26.69,26.14-44.73,53.34-44.75q75.82-.07,151.66,0c13.22,0,26.45.33,39.66.09,17.24-.32,31.66,10.36,35.9,27a25.71,25.71,0,0,0,.93,2.63V396.68a3.93,3.93,0,0,0-.61,1.06c-3.09,14.53-12,23.48-26,28.08C399,437.75,362.74,449.92,326.44,462Z"/><path d="M144.58,232.78c0,17.83,0,35,0,52.24,0,9.27-5.8,16.36-14.56,17.94-6.67,1.2-12.07-1.35-16.74-6Q81.46,265,49.57,233.2c-1.65-1.66-3.33-3.3-5-5-7.87-8.14-7.88-18.34.14-26.39q34.27-34.4,68.64-68.71c5.84-5.86,12.65-8,20.32-4.77s10.95,9.53,10.9,17.8c-.09,15.43,0,30.86,0,46.29v5h4.67c21.9,0,43.8-.05,65.7,0a17.38,17.38,0,0,1,17.32,13.75c1.78,8.23-2.11,16.53-9.82,19.75a26.17,26.17,0,0,1-9.63,1.74c-20.94.14-41.88.07-62.81.07Z"/></svg>