<svg id="Layer_1" data-name="Layer 1" xmlns="http://www.w3.org/2000/svg" viewBox="0 0 500 500"><defs><style>.cls-1{fill:#fff;}</style></defs><path d="M13,473.14c2.74-10.18,5.62-20.33,8.19-30.55,6.9-27.43,13.61-54.91,20.6-82.31a17.81,17.81,0,0,1,4.47-7.81q127.92-128.16,256-256.16c.86-.86,1.78-1.67,2.29-2.13L405.83,195.42c-.45.48-1.5,1.71-2.64,2.85Q275.78,325.65,148.29,452.94a21.39,21.39,0,0,1-9.33,5.37C102.17,467.7,65.31,476.82,28.47,486a20,20,0,0,0-2.53,1H20.39L13,479.61Z"/><path class="cls-1" d="M13,479.61,20.39,487H13Z"/><path d="M436.13,165.36,334.69,64c9.12-9.12,18.41-18.51,27.81-27.77,4.27-4.21,8.44-8.62,13.23-12.16,18.89-14,46.71-12.94,64.08,2.87C451.64,37.65,463,49,473.73,60.87c15.94,17.59,16.62,44.38,2.42,63.49a64.48,64.48,0,0,1-6,7C458.75,142.78,447.33,154.16,436.13,165.36Z"/></svg>