<svg id="Layer_1" data-name="Layer 1" xmlns="http://www.w3.org/2000/svg" viewBox="0 0 500 500"><path d="M470,236.53V264c-.24,1.1-.56,2.2-.72,3.32-1.49,10.17-2.43,20.45-4.52,30.49-17.73,85.31-90.44,154.89-176.18,168.8-8.15,1.32-16.36,2.27-24.55,3.39H236.59c-1.24-.25-2.47-.56-3.73-.75-10.44-1.55-21-2.44-31.32-4.73-122-27.11-197.2-153.87-162.71-274C71.59,76.29,186.57,9.22,302.44,36.68c83.87,19.88,150,90.58,164.25,175.7C468,220.4,468.92,228.48,470,236.53ZM312.48,200.14c-.87-4.77-1.35-9.65-2.69-14.27-6.16-21.16-19.87-35.29-40.65-42.44-3.73-1.28-5.41-3.21-5.13-7.15.22-3.13.1-6.29,0-9.43-.2-7.85-5.95-13.76-13.43-13.91s-13.67,5.91-14,13.86c-.11,2.72,0,5.44,0,8.15,0,6.59-.15,6.8-6.27,8.85-32.67,11-50.07,47.64-37.92,79.91,9.13,24.24,31.29,39.67,57.88,40.29,23.2.55,39.37,22,33,43.72-4.72,16.11-20.32,26.66-36.63,24.76A34.48,34.48,0,0,1,216,299.25c-.37-8.85-6.07-14.8-14-14.64s-14.05,6.79-13.27,15.68a75.68,75.68,0,0,0,3.92,19.62c6.8,18.37,19.87,30.73,38.47,37,4,1.35,5.95,3.42,5.54,7.77a73.19,73.19,0,0,0,0,9c.19,7.83,5.93,13.75,13.41,13.92a14,14,0,0,0,14-13.44,51.09,51.09,0,0,0,0-8.57c-.56-5,1.56-7.32,6.31-8.94,24.2-8.27,40.83-30.6,41.74-55.43,1.3-35.68-25.6-63.7-62.12-64.69C230.86,236,216,220.89,216,202.09c0-18.4,15.06-33.84,33.25-34.19a34.34,34.34,0,0,1,35.35,33.38c.38,8.85,6.07,14.79,14,14.64S312.28,209.14,312.48,200.14Z"/></svg>