<svg id="Layer_1" data-name="Layer 1" xmlns="http://www.w3.org/2000/svg" viewBox="0 0 500 500"><path d="M423.68,303.82c-10.18-25.36-25.69-46.29-52.6-56.07-19-6.91-37.66-9-54.74,5.43a83,83,0,0,1-13.06,8.47c-26,14.64-53.57,21-82.2,10.29-15.72-5.87-29.85-15.88-45-23.33-6.13-3-13.21-6-19.78-5.82-32.88.85-56.82,17-72.32,45.62C64.18,324.85,60,364.64,61,405.12c.52,20.5,8.29,38.56,24.19,52.51,16.16,14.19,35.38,19.22,56.29,19.26q54.24.11,108.49,0v-.1c37.82,0,75.65.51,113.46-.14,41.86-.71,72.87-28.52,75.3-67.84C441,372.94,437.2,337.52,423.68,303.82Z"/><path d="M247.37,241.56A109.28,109.28,0,0,0,247.45,23c-60.77-.14-109.3,48.38-109.32,109.28S186.42,241.6,247.37,241.56Z"/></svg>