<svg id="Layer_1" data-name="Layer 1" xmlns="http://www.w3.org/2000/svg" viewBox="0 0 500 500"><path d="M353,235.64H224c-12.36,0-17.72-5.42-17.72-17.92q0-26.81,0-53.6c0-10.66,5.77-16.45,16.4-16.45q62.07,0,124.15,0H353v-5.09c0-12.52,0-25,0-37.56,0-6.77,2.67-11.85,8.91-14.68,5.9-2.68,11.78-1.29,17.06,4q43.13,43.05,86.17,86.16c7.08,7.1,7,15.42-.11,22.57q-42.88,43-85.81,85.87c-4.9,4.91-10.46,6.79-17.06,4.31-6-2.27-9.12-7.68-9.13-15.45C352.93,263.91,353,250.05,353,235.64Z"/><path d="M147.67,353c0,14.46,0,28.2,0,41.93,0,8-3.11,13.22-9.51,15.67-6.69,2.57-12.09.28-16.94-4.58q-42.52-42.66-85.16-85.22c-7.72-7.73-7.73-15.85,0-23.56q42.42-42.46,84.82-84.91c5.11-5.13,10.75-7.66,17.72-4.71s9.23,8.66,9.14,15.92c-.16,13.58,0,27.17,0,41.48h5.41q62.07,0,124.14,0c11.47,0,17.07,5.64,17.07,17.19q0,27,0,54c0,11-5.73,16.73-16.61,16.73h-130Z"/></svg>